<svg xmlns="http://www.w3.org/2000/svg" width="203.38894653320312" height="300.08392333984375" viewBox="13.840065002441406 -52.37767791748047 203.38894653320312 300.08392333984375"><title>Neo4j Graph Visualization</title><desc>Created using Neo4j (http://www.neo4j.com/)</desc><g class="layer relationships"><g class="relationship" transform="translate(169.8317439455367 218.70623703450292) rotate(279.90215131994864)"><path class="outline" fill="#A5ABB6" stroke="none" d="M 24.018736134675446,-6.953439040707552 L 24.277555179777966,-5.987513214418485 A 105.66678954237352 105.66678954237352 0 0 1 27.047398105520674,-6.6896914592256 L 26.814792054469912,-7.662262497769603 A 106.66678954237352 106.66678954237352 0 0 0 24.018736134675446,-6.953439040707552 Z M 73.12089756242209,-8.399838047628592 L 72.91938437442369,-7.420352246270184 A 105.66678954237352 105.66678954237352 0 0 1 75.71018546377431,-6.806745368500147 L 75.02641189158872,-3.8857089596239116 L 82.63989934651644,-5.6981131015465 L 76.62188356002174,-10.701460580335127 L 75.93810998783616,-7.7804241714588915 A 106.66678954237352 106.66678954237352 0 0 0 73.12089756242209,-8.399838047628592"/><text text-anchor="middle" pointer-events="none" font-size="8px" fill="#000000" x="49.93529531502529" y="-7.07455656416667" font-family="sans-serif">twowheeler</text></g><g class="relationship" transform="translate(188.2289975878755 113.31809043764329) rotate(242.8288368027262)"><path class="outline" fill="#A5ABB6" stroke="none" d="M 24.018736134675446,-6.953439040707552 L 24.277555179777966,-5.987513214418485 A 100.54768820057576 100.54768820057576 0 0 1 25.79484334096323,-6.381418589417748 L 25.55111453004052,-7.3512620132374025 A 101.54768820057576 101.54768820057576 0 0 0 24.018736134675446,-6.953439040707552 Z M 71.82942676253778,-8.105356948510817 L 71.61742572817747,-7.128087506938968 A 100.54768820057576 100.54768820057576 0 0 1 73.14674215848328,-6.783825884734356 L 72.46510947034648,-3.862289152385539 L 80.0772666486533,-5.680272401139966 L 74.05558574266567,-10.679208194532778 L 73.37395305452887,-7.7576714621839615 A 101.54768820057576 101.54768820057576 0 0 0 71.82942676253778,-8.105356948510817"/><text text-anchor="middle" pointer-events="none" font-size="8px" fill="#000000" x="48.654880489940126" y="-6.90018019484863" transform="rotate(180 48.654880489940126 -9.90018019484863)" font-family="sans-serif">twowheeler</text></g><g class="relationship" transform="translate(140.54402534310606 20.418191834974618) rotate(204.1443413869801)"><path class="outline" fill="#A5ABB6" stroke="none" d="M 24.018736134675446,6.953439040707552 L 24.277555179777966,5.987513214418485 A 105.84444179201857 105.84444179201857 0 0 0 27.09096782656109,6.700170874729494 L 26.858729418090498,7.672829767471981 A 106.84444179201857 106.84444179201857 0 0 1 24.018736134675446,6.953439040707552 Z M 73.16571917684993,8.409843595816014 L 72.9645518883831,7.430286694941486 A 105.84444179201857 105.84444179201857 0 0 0 75.79921886649808,6.807522867264042 L 75.11537266945044,3.886503459799674 L 82.72890518342288,5.698718308730289 L 76.71101379589493,10.702215410549865 L 76.02716759884729,7.781196003085498 A 106.84444179201857 106.84444179201857 0 0 1 73.16571917684993,8.409843595816014"/><text text-anchor="middle" pointer-events="none" font-size="8px" fill="#000000" x="49.97976761030629" y="13.080608432460593" transform="rotate(180 49.97976761030629 10.080608432460593)" font-family="sans-serif">twowheeler</text></g><g class="relationship" transform="translate(188.2289975878755 113.31809043764329) rotate(181.21397537591935)"><path class="outline" fill="#A5ABB6" stroke="none" d="M 24.018736134675446,-6.953439040707552 L 24.277555179777966,-5.987513214418485 A 110.10484816996113 110.10484816996113 0 0 1 28.137712344179132,-6.947453524767241 L 27.91395221999209,-7.922097771056016 A 111.10484816996113 111.10484816996113 0 0 0 24.018736134675446,-6.953439040707552 Z M 74.24072765146997,-8.645867136972257 L 74.04752329395762,-7.664708599202626 A 110.10484816996113 110.10484816996113 0 0 1 77.93578375686876,-6.825822846628324 L 77.25022819785075,-3.905204149245952 L 84.86481997726396,-5.712962991816707 L 78.84985783555943,-10.719981109804822 L 78.16430227654142,-7.799362412422449 A 111.10484816996113 111.10484816996113 0 0 0 74.24072765146997,-8.645867136972257"/><text text-anchor="middle" pointer-events="none" font-size="8px" fill="#000000" x="51.04700345803409" y="-7.22574906618496" transform="rotate(180 51.04700345803409 -10.22574906618496)" font-family="sans-serif">twowheeler</text></g><g class="relationship" transform="translate(169.8317439455367 218.70623703450292) rotate(279.90215131994864)"><path class="outline" fill="#A5ABB6" stroke="none" d="M 24.018736134675446,6.953439040707552 L 24.277555179777966,5.987513214418485 A 105.66678954237352 105.66678954237352 0 0 0 40.34230704790918,8.9838120882809 L 40.235520178078616,9.978094022357851 A 106.66678954237352 106.66678954237352 0 0 1 24.018736134675446,6.953439040707552 Z M 59.63322203354183,10.287065602997188 L 59.558155657965045,9.289887063688525 A 105.66678954237352 105.66678954237352 0 0 0 75.71018546377431,6.806745368500147 L 75.02641189158872,3.8857089596239116 L 82.63989934651644,5.6981131015465 L 76.62188356002174,10.701460580335127 L 75.93810998783616,7.7804241714588915 A 106.66678954237352 106.66678954237352 0 0 1 59.63322203354183,10.287065602997188"/><text text-anchor="middle" pointer-events="none" font-size="8px" fill="#000000" x="49.93529531502531" y="13.07455656416667" font-family="sans-serif">trek</text></g><g class="relationship" transform="translate(188.2289975878755 113.31809043764329) rotate(242.8288368027262)"><path class="outline" fill="#A5ABB6" stroke="none" d="M 24.018736134675446,6.953439040707552 L 24.277555179777966,5.987513214418485 A 100.54768820057576 100.54768820057576 0 0 0 39.06633465642021,8.78394650953409 L 38.95459785399582,9.777684345677997 A 101.54768820057576 101.54768820057576 0 0 1 24.018736134675446,6.953439040707552 Z M 58.35400428396734,10.093793413412726 L 58.27470368540576,9.096942664770907 A 100.54768820057576 100.54768820057576 0 0 0 73.14674215848328,6.783825884734356 L 72.46510947034648,3.862289152385539 L 80.0772666486533,5.680272401139966 L 74.05558574266567,10.679208194532778 L 73.37395305452887,7.7576714621839615 A 101.54768820057576 101.54768820057576 0 0 1 58.35400428396734,10.093793413412726"/><text text-anchor="middle" pointer-events="none" font-size="8px" fill="#000000" x="48.654880489940155" y="12.90018019484863" transform="rotate(180 48.654880489940155 9.90018019484863)" font-family="sans-serif">trek</text></g><g class="relationship" transform="translate(188.2289975878755 113.31809043764329) rotate(181.21397537591935)"><path class="outline" fill="#A5ABB6" stroke="none" d="M 24.018736134675446,6.953439040707552 L 24.277555179777966,5.987513214418485 A 110.10484816996113 110.10484816996113 0 0 0 41.45054073901903,9.155349286455191 L 41.347691079867005,10.150046198892497 A 111.10484816996113 111.10484816996113 0 0 1 24.018736134675446,6.953439040707552 Z M 60.74394698575233,10.4530764812163 L 60.67222050151038,9.455652142502686 A 110.10484816996113 110.10484816996113 0 0 0 77.93578375686876,6.825822846628324 L 77.25022819785075,3.905204149245952 L 84.86481997726396,5.712962991816707 L 78.84985783555943,10.719981109804822 L 78.16430227654142,7.799362412422449 A 111.10484816996113 111.10484816996113 0 0 1 60.74394698575233,10.4530764812163"/><text text-anchor="middle" pointer-events="none" font-size="8px" fill="#000000" x="51.04700345803409" y="13.22574906618496" transform="rotate(180 51.04700345803409 10.22574906618496)" font-family="sans-serif">trek</text></g><g class="relationship" transform="translate(140.54402534310606 20.418191834974618) rotate(204.1443413869801)"><path class="outline" fill="#A5ABB6" stroke="none" d="M 24.018736134675446,-6.953439040707552 L 24.277555179777966,-5.987513214418485 A 105.84444179201857 105.84444179201857 0 0 1 40.386633913335025,-8.990708144544755 L 40.28001066104713,-9.985007637691325 A 106.84444179201857 106.84444179201857 0 0 0 24.018736134675446,-6.953439040707552 Z M 59.67765400703549,-10.293737085616087 L 59.602726932318575,-9.296548069694651 A 105.84444179201857 105.84444179201857 0 0 1 75.79921886649808,-6.807522867264042 L 75.11537266945044,-3.886503459799674 L 82.72890518342288,-5.698718308730289 L 76.71101379589493,-10.702215410549865 L 76.02716759884729,-7.781196003085498 A 106.84444179201857 106.84444179201857 0 0 0 59.67765400703549,-10.293737085616087"/><text text-anchor="middle" pointer-events="none" font-size="8px" fill="#000000" x="49.97976761030627" y="-7.080608432460593" transform="rotate(180 49.97976761030627 -10.080608432460593)" font-family="sans-serif">trek</text></g><g class="relationship" transform="translate(79.05019963600067 111.00447832574078) rotate(304.1703296603634)"><path class="outline" fill="#A5ABB6" stroke="none" d="M 21.40063509461097,12.933012701892217 L 21.90063509461097,12.06698729810778 A 62.04128567934754 62.04128567934754 0 0 0 40.21528020450884,19.063918613773964 L 40.01048113255786,20.04272264938478 A 63.04128567934754 63.04128567934754 0 0 1 21.40063509461097,12.933012701892217 Z M 62.07371704488361,20.71102199074162 L 61.92853537525283,19.721616976198426 A 62.04128567934754 62.04128567934754 0 0 0 80.6330921459564,13.846003872088914 L 79.29309021458621,11.161903496930751 L 87.1193266765538,11.166682761418183 L 82.4197613877833,17.424804372299796 L 81.07975945641311,14.740703997141633 A 63.04128567934754 63.04128567934754 0 0 1 62.07371704488361,20.71102199074162"/><text text-anchor="middle" pointer-events="none" font-size="8px" fill="#000000" x="51.027759710963466" y="23.85027256859901" font-family="sans-serif">road</text></g><g class="relationship" transform="translate(79.05019963600067 111.00447832574078) rotate(304.1703296603634)"><path class="outline" fill="#A5ABB6" stroke="none" d="M 25 0.5 L 41.575446151435905 0.5 L 41.575446151435905 -0.5 L 25 -0.5 Z M 60.911383651435905 0.5 L 77.48682980287181 0.5 L 77.48682980287181 3.5 L 84.48682980287181 0 L 77.48682980287181 -3.5 L 77.48682980287181 -0.5 L 60.911383651435905 -0.5 Z"/><text text-anchor="middle" pointer-events="none" font-size="8px" fill="#000000" x="51.243414901435905" y="3" font-family="sans-serif">trek</text></g><g class="relationship" transform="translate(79.05019963600067 111.00447832574078) rotate(304.1703296603634)"><path class="outline" fill="#A5ABB6" stroke="none" d="M 21.40063509461097,-12.933012701892217 L 21.90063509461097,-12.06698729810778 A 62.04128567934754 62.04128567934754 0 0 1 28.66105402153871,-15.43899461724532 L 28.270020475939223,-16.359371043614388 A 63.04128567934754 63.04128567934754 0 0 0 21.40063509461097,-12.933012701892217 Z M 74.015588034491,-17.7450124241834 L 73.68097699550458,-16.80265609423786 A 62.04128567934754 62.04128567934754 0 0 1 80.6330921459564,-13.846003872088914 L 79.29309021458621,-11.161903496930751 L 87.1193266765538,-11.166682761418183 L 82.4197613877833,-17.424804372299796 L 81.07975945641311,-14.740703997141633 A 63.04128567934754 63.04128567934754 0 0 0 74.015588034491,-17.7450124241834"/><text text-anchor="middle" pointer-events="none" font-size="8px" fill="#000000" x="51.027759710963466" y="-17.85027256859901" font-family="sans-serif">twowheeler</text></g></g><g class="layer nodes"><g class="node" transform="translate(169.8317439455367,218.70623703450292)"><circle class="outline" cx="0" cy="0" r="25" fill="#F16667" stroke="#eb2728" stroke-width="2px"/><text text-anchor="middle" pointer-events="none" font-family="sans-serif" dy="1.5625" font-size="25" fill="#FFFFFF"/><text text-anchor="middle" pointer-events="none" y="5" font-size="10px" fill="#FFFFFF" font-family="sans-serif"> Rimbik</text></g><g class="node" transform="translate(188.2289975878755,113.31809043764329)"><circle class="outline" cx="0" cy="0" r="25" fill="#8DCC93" stroke="#5db665" stroke-width="2px"/><text text-anchor="middle" pointer-events="none" font-family="sans-serif" dy="1.5625" font-size="25" fill="#604A0E"/><text text-anchor="middle" pointer-events="none" y="5" font-size="10px" fill="#604A0E" font-family="sans-serif"> Sirikhola</text></g><g class="node" transform="translate(140.54402534310606,20.418191834974618)"><circle class="outline" cx="0" cy="0" r="25" fill="#8DCC93" stroke="#5db665" stroke-width="2px"/><text text-anchor="middle" pointer-events="none" font-family="sans-serif" dy="1.5625" font-size="25" fill="#604A0E"/><text text-anchor="middle" pointer-events="none" y="5" font-size="10px" fill="#604A0E" font-family="sans-serif"> Gurdum</text></g><g class="node" transform="translate(42.840064851347975,-23.377676615844525)"><circle class="outline" cx="0" cy="0" r="25" fill="#D9C8AE" stroke="#c0a378" stroke-width="2px"/><text text-anchor="middle" pointer-events="none" font-family="sans-serif" dy="1.5625" font-size="25" fill="#604A0E"/><text text-anchor="middle" pointer-events="none" y="5" font-size="10px" fill="#604A0E" font-family="sans-serif"> Sandak…</text></g><g class="node" transform="translate(79.05019963600067,111.00447832574078)"><circle class="outline" cx="0" cy="0" r="25" fill="#8DCC93" stroke="#5db665" stroke-width="2px"/><text text-anchor="middle" pointer-events="none" font-family="sans-serif" dy="1.5625" font-size="25" fill="#604A0E"/><text text-anchor="middle" pointer-events="none" y="5" font-size="10px" fill="#604A0E" font-family="sans-serif"> Rammam</text></g></g></svg>