<svg xmlns="http://www.w3.org/2000/svg" width="163.517333984375" height="242.54522705078125" viewBox="-0.34453582763671875 -20.130199432373047 163.517333984375 242.54522705078125"><title>Neo4j Graph Visualization</title><desc>Created using Neo4j (http://www.neo4j.com/)</desc><g class="layer relationships"><g class="relationship" transform="translate(134.17280732512597 8.869801343162441) rotate(520.8782821667643)"><path class="outline" fill="#A5ABB6" stroke="none" d="M 21.40063509461097,12.933012701892217 L 21.90063509461097,12.06698729810778 A 59.921739885971796 59.921739885971796 0 0 0 40.49558450985262,19.007163578061217 L 40.30590509551364,19.989009655496993 A 60.921739885971796 60.921739885971796 0 0 1 21.40063509461097,12.933012701892217 Z M 59.709542369599006,20.587364983512373 L 59.58072074784803,19.595697201556412 A 59.921739885971796 59.921739885971796 0 0 0 78.56796411204019,13.814453392377835 L 77.23089717480183,11.12888976338968 L 85.05712373588561,11.142224476986351 L 80.350720028358,17.395204897695375 L 79.01365309111964,14.70964126870722 A 60.921739885971796 60.921739885971796 0 0 1 59.709542369599006,20.587364983512373"/><text text-anchor="middle" pointer-events="none" font-size="8px" fill="#000000" x="49.99914841929882" y="23.566270024161156" transform="rotate(180 49.99914841929882 20.566270024161156)" font-family="sans-serif">trek</text></g><g class="relationship" transform="translate(32.663833341501785 44.063531337420955) rotate(452.1527614957318)"><path class="outline" fill="#A5ABB6" stroke="none" d="M 25 0.5 L 40.185991747301756 0.5 L 40.185991747301756 -0.5 L 25 -0.5 Z M 59.521929247301756 0.5 L 74.70792099460351 0.5 L 74.70792099460351 3.5 L 81.70792099460351 0 L 74.70792099460351 -3.5 L 74.70792099460351 -0.5 L 59.521929247301756 -0.5 Z"/><text text-anchor="middle" pointer-events="none" font-size="8px" fill="#000000" x="49.853960497301756" y="3" transform="rotate(180 49.853960497301756 0)" font-family="sans-serif">trek</text></g><g class="relationship" transform="translate(28.655463783661904 150.6961406859609) rotate(383.43212056563505)"><path class="outline" fill="#A5ABB6" stroke="none" d="M 25 0.5 L 40.54454506960082 0.5 L 40.54454506960082 -0.5 L 25 -0.5 Z M 59.88048256960082 0.5 L 75.42502763920164 0.5 L 75.42502763920164 3.5 L 82.42502763920164 0 L 75.42502763920164 -3.5 L 75.42502763920164 -0.5 L 59.88048256960082 -0.5 Z"/><text text-anchor="middle" pointer-events="none" font-size="8px" fill="#000000" x="50.21251381960082" y="3" font-family="sans-serif">trek</text></g><g class="relationship" transform="translate(134.17280732512597 8.869801343162441) rotate(520.8782821667643)"><path class="outline" fill="#A5ABB6" stroke="none" d="M 25 0.5 L 39.21255094706012 0.5 L 39.21255094706012 -0.5 L 25 -0.5 Z M 61.22426969706012 0.5 L 75.43682064412025 0.5 L 75.43682064412025 3.5 L 82.43682064412025 0 L 75.43682064412025 -3.5 L 75.43682064412025 -0.5 L 61.22426969706012 -0.5 Z"/><text text-anchor="middle" pointer-events="none" font-size="8px" fill="#000000" x="50.21841032206012" y="3" transform="rotate(180 50.21841032206012 0)" font-family="sans-serif">road</text></g><g class="relationship" transform="translate(134.17280732512597 8.869801343162441) rotate(520.8782821667643)"><path class="outline" fill="#A5ABB6" stroke="none" d="M 21.40063509461097,-12.933012701892217 L 21.90063509461097,-12.06698729810778 A 59.921739885971796 59.921739885971796 0 0 1 23.46261039291747,-12.937977433352088 L 22.988677314560245,-13.818538298505004 A 60.921739885971796 60.921739885971796 0 0 0 21.40063509461097,-12.933012701892217 Z M 77.37406575018494,-15.495635560063448 L 76.95528978022185,-14.587545979140145 A 59.921739885971796 59.921739885971796 0 0 1 78.56796411204019,-13.814453392377835 L 77.23089717480183,-11.12888976338968 L 85.05712373588561,-11.142224476986351 L 80.350720028358,-17.395204897695375 L 79.01365309111964,-14.70964126870722 A 60.921739885971796 60.921739885971796 0 0 0 77.37406575018494,-15.495635560063448"/><text text-anchor="middle" pointer-events="none" font-size="8px" fill="#000000" x="49.999148419298834" y="-17.566270024161156" transform="rotate(180 49.999148419298834 -20.566270024161156)" font-family="sans-serif">PublicTrans…</text></g></g><g class="layer nodes"><g class="node" transform="translate(134.17280732512597,8.869801343162441)"><circle class="outline" cx="0" cy="0" r="25" fill="#F16667" stroke="#eb2728" stroke-width="2px"/><text text-anchor="middle" pointer-events="none" font-family="sans-serif" dy="1.5625" font-size="25" fill="#FFFFFF"/><text text-anchor="middle" pointer-events="none" y="5" font-size="10px" fill="#FFFFFF" font-family="sans-serif"> Darjeeling</text></g><g class="node" transform="translate(127.22134668457446,193.41502750721165)"><circle class="outline" cx="0" cy="0" r="25" fill="#D9C8AE" stroke="#c0a378" stroke-width="2px"/><text text-anchor="middle" pointer-events="none" font-family="sans-serif" dy="1.5625" font-size="25" fill="#604A0E"/><text text-anchor="middle" pointer-events="none" y="5" font-size="10px" fill="#604A0E" font-family="sans-serif"> Sandak…</text></g><g class="node" transform="translate(32.663833341501785,44.063531337420955)"><circle class="outline" cx="0" cy="0" r="25" fill="#F16667" stroke="#eb2728" stroke-width="2px"/><text text-anchor="middle" pointer-events="none" font-family="sans-serif" dy="1.5625" font-size="25" fill="#FFFFFF"/><text text-anchor="middle" pointer-events="none" y="5" font-size="10px" fill="#FFFFFF" font-family="sans-serif"> Rimbik</text></g><g class="node" transform="translate(28.655463783661904,150.6961406859609)"><circle class="outline" cx="0" cy="0" r="25" fill="#8DCC93" stroke="#5db665" stroke-width="2px"/><text text-anchor="middle" pointer-events="none" font-family="sans-serif" dy="1.5625" font-size="25" fill="#604A0E"/><text text-anchor="middle" pointer-events="none" y="5" font-size="10px" fill="#604A0E" font-family="sans-serif"> BhikeBh…</text></g></g></svg>