<svg xmlns="http://www.w3.org/2000/svg" width="419.523193359375" height="439.463623046875" viewBox="-129.04249572753906 -167.177001953125 419.523193359375 439.463623046875"><title>Neo4j Graph Visualization</title><desc>Created using Neo4j (http://www.neo4j.com/)</desc><g class="layer relationships"><g class="relationship" transform="translate(56.52123246270739 -138.17700664997145) rotate(464.4976795667408)"><path class="outline" fill="#A5ABB6" stroke="none" d="M 25 0.5 L 35.70717584905783 0.5 L 35.70717584905783 -0.5 L 25 -0.5 Z M 81.26967584905783 0.5 L 91.97685169811567 0.5 L 91.97685169811567 3.5 L 98.97685169811567 0 L 91.97685169811567 -3.5 L 91.97685169811567 -0.5 L 81.26967584905783 -0.5 Z"/><text text-anchor="middle" pointer-events="none" font-size="8px" fill="#000000" x="58.48842584905783" y="3" transform="rotate(180 58.48842584905783 0)" font-family="sans-serif">ACTED_IN</text></g><g class="relationship" transform="translate(66.57439425429834 112.96995368148616) rotate(252.60008140919456)"><path class="outline" fill="#A5ABB6" stroke="none" d="M 25 0.5 L 42.421436601614616 0.5 L 42.421436601614616 -0.5 L 25 -0.5 Z M 87.98393660161462 0.5 L 105.40537320322923 0.5 L 105.40537320322923 3.5 L 112.40537320322923 0 L 105.40537320322923 -3.5 L 105.40537320322923 -0.5 L 87.98393660161462 -0.5 Z"/><text text-anchor="middle" pointer-events="none" font-size="8px" fill="#000000" x="65.20268660161462" y="3" transform="rotate(180 65.20268660161462 0)" font-family="sans-serif">ACTED_IN</text></g><g class="relationship" transform="translate(66.57439425429834 112.96995368148616) rotate(250.03266629493083)"><path class="outline" fill="#A5ABB6" stroke="none" d="M 25 0.5 L 25.707652268499587 0.5 L 25.707652268499587 -0.5 L 25 -0.5 Z M 45.04358976849959 0.5 L 45.75124203699917 0.5 L 45.75124203699917 3.5 L 52.75124203699917 0 L 45.75124203699917 -3.5 L 45.75124203699917 -0.5 L 45.04358976849959 -0.5 Z"/><text text-anchor="middle" pointer-events="none" font-size="8px" fill="#000000" x="35.37562101849959" y="3" transform="rotate(180 35.37562101849959 0)" font-family="sans-serif">A…</text></g><g class="relationship" transform="translate(66.57439425429834 112.96995368148616) rotate(223.31977588958364)"><path class="outline" fill="#A5ABB6" stroke="none" d="M 25 0.5 L 32.584788640028236 0.5 L 32.584788640028236 -0.5 L 25 -0.5 Z M 78.14728864002824 0.5 L 85.73207728005647 0.5 L 85.73207728005647 3.5 L 92.73207728005647 0 L 85.73207728005647 -3.5 L 85.73207728005647 -0.5 L 78.14728864002824 -0.5 Z"/><text text-anchor="middle" pointer-events="none" font-size="8px" fill="#000000" x="55.366038640028236" y="3" transform="rotate(180 55.366038640028236 0)" font-family="sans-serif">ACTED_IN</text></g><g class="relationship" transform="translate(-36.50846812565109 120.11938937831808) rotate(482.3082997708787)"><path class="outline" fill="#A5ABB6" stroke="none" d="M 25 0.5 L 33.15469140641777 0.5 L 33.15469140641777 -0.5 L 25 -0.5 Z M 78.71719140641777 0.5 L 86.87188281283554 0.5 L 86.87188281283554 3.5 L 93.87188281283554 0 L 86.87188281283554 -3.5 L 86.87188281283554 -0.5 L 78.71719140641777 -0.5 Z"/><text text-anchor="middle" pointer-events="none" font-size="8px" fill="#000000" x="55.93594140641777" y="3" transform="rotate(180 55.93594140641777 0)" font-family="sans-serif">ACTED_IN</text></g><g class="relationship" transform="translate(-36.50846812565109 120.11938937831808) rotate(433.5543701617392)"><path class="outline" fill="#A5ABB6" stroke="none" d="M 25 0.5 L 37.92928428759075 0.5 L 37.92928428759075 -0.5 L 25 -0.5 Z M 83.49178428759075 0.5 L 96.4210685751815 0.5 L 96.4210685751815 3.5 L 103.4210685751815 0 L 96.4210685751815 -3.5 L 96.4210685751815 -0.5 L 83.49178428759075 -0.5 Z"/><text text-anchor="middle" pointer-events="none" font-size="8px" fill="#000000" x="60.71053428759075" y="3" font-family="sans-serif">ACTED_IN</text></g><g class="relationship" transform="translate(-36.50846812565109 120.11938937831808) rotate(281.21225752802854)"><path class="outline" fill="#A5ABB6" stroke="none" d="M 25 0.5 L 26.316294541823567 0.5 L 26.316294541823567 -0.5 L 25 -0.5 Z M 56.31629454182357 0.5 L 57.63258908364713 0.5 L 57.63258908364713 3.5 L 64.63258908364713 0 L 57.63258908364713 -3.5 L 57.63258908364713 -0.5 L 56.31629454182357 -0.5 Z"/><text text-anchor="middle" pointer-events="none" font-size="8px" fill="#000000" x="41.31629454182357" y="3" font-family="sans-serif">ACT…</text></g><g class="relationship" transform="translate(-36.50846812565109 120.11938937831808) rotate(313.64978279826886)"><path class="outline" fill="#A5ABB6" stroke="none" d="M 25 0.5 L 29.15677802246652 0.5 L 29.15677802246652 -0.5 L 25 -0.5 Z M 74.71927802246651 0.5 L 78.87605604493304 0.5 L 78.87605604493304 3.5 L 85.87605604493304 0 L 78.87605604493304 -3.5 L 78.87605604493304 -0.5 L 74.71927802246651 -0.5 Z"/><text text-anchor="middle" pointer-events="none" font-size="8px" fill="#000000" x="51.93802802246652" y="3" font-family="sans-serif">ACTED_IN</text></g><g class="relationship" transform="translate(-36.50846812565109 120.11938937831808) rotate(294.1494649074895)"><path class="outline" fill="#A5ABB6" stroke="none" d="M 25 0.5 L 49.483174033945886 0.5 L 49.483174033945886 -0.5 L 25 -0.5 Z M 95.04567403394589 0.5 L 119.52884806789177 0.5 L 119.52884806789177 3.5 L 126.52884806789177 0 L 119.52884806789177 -3.5 L 119.52884806789177 -0.5 L 95.04567403394589 -0.5 Z"/><text text-anchor="middle" pointer-events="none" font-size="8px" fill="#000000" x="72.26442403394589" y="3" font-family="sans-serif">ACTED_IN</text></g><g class="relationship" transform="translate(-74.6886849335796 -43.438072376017914) rotate(413.67596949067956)"><path class="outline" fill="#A5ABB6" stroke="none" d="M 25 0.5 L 25.771043020079496 0.5 L 25.771043020079496 -0.5 L 25 -0.5 Z M 61.106980520079496 0.5 L 61.87802354015899 0.5 L 61.87802354015899 3.5 L 68.87802354015899 0 L 61.87802354015899 -3.5 L 61.87802354015899 -0.5 L 61.106980520079496 -0.5 Z"/><text text-anchor="middle" pointer-events="none" font-size="8px" fill="#000000" x="43.439011770079496" y="3" font-family="sans-serif">ACTE…</text></g><g class="relationship" transform="translate(-74.6886849335796 -43.438072376017914) rotate(395.99584203407323)"><path class="outline" fill="#A5ABB6" stroke="none" d="M 25 0.5 L 44.611080477568436 0.5 L 44.611080477568436 -0.5 L 25 -0.5 Z M 90.17358047756844 0.5 L 109.78466095513687 0.5 L 109.78466095513687 3.5 L 116.78466095513687 0 L 109.78466095513687 -3.5 L 109.78466095513687 -0.5 L 90.17358047756844 -0.5 Z"/><text text-anchor="middle" pointer-events="none" font-size="8px" fill="#000000" x="67.39233047756844" y="3" font-family="sans-serif">ACTED_IN</text></g><g class="relationship" transform="translate(-74.6886849335796 -43.438072376017914) rotate(374.16905377380357)"><path class="outline" fill="#A5ABB6" stroke="none" d="M 25 0.5 L 25.377040812904298 0.5 L 25.377040812904298 -0.5 L 25 -0.5 Z M 70.9395408129043 0.5 L 71.3165816258086 0.5 L 71.3165816258086 3.5 L 78.3165816258086 0 L 71.3165816258086 -3.5 L 71.3165816258086 -0.5 L 70.9395408129043 -0.5 Z"/><text text-anchor="middle" pointer-events="none" font-size="8px" fill="#000000" x="48.1582908129043" y="3" font-family="sans-serif">ACTED_IN</text></g><g class="relationship" transform="translate(133.5726111535162 12.24153906648035) rotate(397.6883992868727)"><path class="outline" fill="#A5ABB6" stroke="none" d="M 25 0.5 L 39.47501707192578 0.5 L 39.47501707192578 -0.5 L 25 -0.5 Z M 85.03751707192578 0.5 L 99.51253414385155 0.5 L 99.51253414385155 3.5 L 106.51253414385155 0 L 99.51253414385155 -3.5 L 99.51253414385155 -0.5 L 85.03751707192578 -0.5 Z"/><text text-anchor="middle" pointer-events="none" font-size="8px" fill="#000000" x="62.25626707192578" y="3" font-family="sans-serif">ACTED_IN</text></g><g class="relationship" transform="translate(133.5726111535162 12.24153906648035) rotate(532.5520495681039)"><path class="outline" fill="#A5ABB6" stroke="none" d="M 25 0.5 L 50.69446281334662 0.5 L 50.69446281334662 -0.5 L 25 -0.5 Z M 96.25696281334662 0.5 L 121.95142562669324 0.5 L 121.95142562669324 3.5 L 128.95142562669324 0 L 121.95142562669324 -3.5 L 121.95142562669324 -0.5 L 96.25696281334662 -0.5 Z"/><text text-anchor="middle" pointer-events="none" font-size="8px" fill="#000000" x="73.47571281334662" y="3" transform="rotate(180 73.47571281334662 0)" font-family="sans-serif">ACTED_IN</text></g><g class="relationship" transform="translate(133.5726111535162 12.24153906648035) rotate(523.5335045285854)"><path class="outline" fill="#A5ABB6" stroke="none" d="M 25 0.5 L 27.607030084647626 0.5 L 27.607030084647626 -0.5 L 25 -0.5 Z M 62.942967584647626 0.5 L 65.54999766929525 0.5 L 65.54999766929525 3.5 L 72.54999766929525 0 L 65.54999766929525 -3.5 L 65.54999766929525 -0.5 L 62.942967584647626 -0.5 Z"/><text text-anchor="middle" pointer-events="none" font-size="8px" fill="#000000" x="45.274998834647626" y="3" transform="rotate(180 45.274998834647626 0)" font-family="sans-serif">ACTE…</text></g><g class="relationship" transform="translate(133.5726111535162 12.24153906648035) rotate(363.9798488834196)"><path class="outline" fill="#A5ABB6" stroke="none" d="M 25 0.5 L 37.82738302326031 0.5 L 37.82738302326031 -0.5 L 25 -0.5 Z M 83.38988302326031 0.5 L 96.21726604652062 0.5 L 96.21726604652062 3.5 L 103.21726604652062 0 L 96.21726604652062 -3.5 L 96.21726604652062 -0.5 L 83.38988302326031 -0.5 Z"/><text text-anchor="middle" pointer-events="none" font-size="8px" fill="#000000" x="60.60863302326031" y="3" font-family="sans-serif">ACTED_IN</text></g><g class="relationship" transform="translate(133.5726111535162 12.24153906648035) rotate(429.1385572283382)"><path class="outline" fill="#A5ABB6" stroke="none" d="M 25 0.5 L 41.05351628161269 0.5 L 41.05351628161269 -0.5 L 25 -0.5 Z M 86.61601628161269 0.5 L 102.66953256322537 0.5 L 102.66953256322537 3.5 L 109.66953256322537 0 L 102.66953256322537 -3.5 L 102.66953256322537 -0.5 L 86.61601628161269 -0.5 Z"/><text text-anchor="middle" pointer-events="none" font-size="8px" fill="#000000" x="63.83476628161269" y="3" font-family="sans-serif">ACTED_IN</text></g><g class="relationship" transform="translate(133.5726111535162 12.24153906648035) rotate(321.53216139826543)"><path class="outline" fill="#A5ABB6" stroke="none" d="M 25 0.5 L 34.83359688048324 0.5 L 34.83359688048324 -0.5 L 25 -0.5 Z M 80.39609688048324 0.5 L 90.22969376096648 0.5 L 90.22969376096648 3.5 L 97.22969376096648 0 L 90.22969376096648 -3.5 L 90.22969376096648 -0.5 L 80.39609688048324 -0.5 Z"/><text text-anchor="middle" pointer-events="none" font-size="8px" fill="#000000" x="57.61484688048324" y="3" font-family="sans-serif">ACTED_IN</text></g><g class="relationship" transform="translate(133.5726111535162 12.24153906648035) rotate(195.70357146649008)"><path class="outline" fill="#A5ABB6" stroke="none" d="M 25 0.5 L 29.85807847216497 0.5 L 29.85807847216497 -0.5 L 25 -0.5 Z M 75.42057847216498 0.5 L 80.27865694432994 0.5 L 80.27865694432994 3.5 L 87.27865694432994 0 L 80.27865694432994 -3.5 L 80.27865694432994 -0.5 L 75.42057847216498 -0.5 Z"/><text text-anchor="middle" pointer-events="none" font-size="8px" fill="#000000" x="52.63932847216497" y="3" transform="rotate(180 52.63932847216497 0)" font-family="sans-serif">ACTED_IN</text></g></g><g class="layer nodes"><g class="node" transform="translate(25.48476889116847,-18.147853166540177)"><circle class="outline" cx="0" cy="0" r="25" fill="#F79767" stroke="#f36924" stroke-width="2px"/><text text-anchor="middle" pointer-events="none" font-family="sans-serif" dy="1.5625" font-size="25" fill="#FFFFFF"/><text text-anchor="middle" pointer-events="none" font-family="sans-serif" dy="1.5625" font-size="25" fill="#FFFFFF"/><text text-anchor="middle" pointer-events="none" y="0" font-size="10px" fill="#FFFFFF" font-family="sans-serif"> The</text><text text-anchor="middle" pointer-events="none" y="10" font-size="10px" fill="#FFFFFF" font-family="sans-serif"> Matrix</text></g><g class="node" transform="translate(56.52123246270739,-138.17700664997145)"><circle class="outline" cx="0" cy="0" r="25" fill="#57C7E3" stroke="#23b3d7" stroke-width="2px"/><text text-anchor="middle" pointer-events="none" font-family="sans-serif" dy="1.5625" font-size="25" fill="#FFFFFF"/><text text-anchor="middle" pointer-events="none" font-family="sans-serif" dy="1.5625" font-size="25" fill="#FFFFFF"/><text text-anchor="middle" pointer-events="none" y="0" font-size="10px" fill="#FFFFFF" font-family="sans-serif"> Emil</text><text text-anchor="middle" pointer-events="none" y="10" font-size="10px" fill="#FFFFFF" font-family="sans-serif"> Eifrem</text></g><g class="node" transform="translate(66.57439425429834,112.96995368148616)"><circle class="outline" cx="0" cy="0" r="25" fill="#57C7E3" stroke="#23b3d7" stroke-width="2px"/><text text-anchor="middle" pointer-events="none" font-family="sans-serif" dy="1.5625" font-size="25" fill="#FFFFFF"/><text text-anchor="middle" pointer-events="none" font-family="sans-serif" dy="1.5625" font-size="25" fill="#FFFFFF"/><text text-anchor="middle" pointer-events="none" y="0" font-size="10px" fill="#FFFFFF" font-family="sans-serif"> Laurence</text><text text-anchor="middle" pointer-events="none" y="10" font-size="10px" fill="#FFFFFF" font-family="sans-serif"> Fishbur…</text></g><g class="node" transform="translate(-36.50846812565109,120.11938937831808)"><circle class="outline" cx="0" cy="0" r="25" fill="#57C7E3" stroke="#23b3d7" stroke-width="2px"/><text text-anchor="middle" pointer-events="none" font-family="sans-serif" dy="1.5625" font-size="25" fill="#FFFFFF"/><text text-anchor="middle" pointer-events="none" font-family="sans-serif" dy="1.5625" font-size="25" fill="#FFFFFF"/><text text-anchor="middle" pointer-events="none" y="0" font-size="10px" fill="#FFFFFF" font-family="sans-serif"> Hugo</text><text text-anchor="middle" pointer-events="none" y="10" font-size="10px" fill="#FFFFFF" font-family="sans-serif"> Weaving</text></g><g class="node" transform="translate(-74.6886849335796,-43.438072376017914)"><circle class="outline" cx="0" cy="0" r="25" fill="#57C7E3" stroke="#23b3d7" stroke-width="2px"/><text text-anchor="middle" pointer-events="none" font-family="sans-serif" dy="1.5625" font-size="25" fill="#FFFFFF"/><text text-anchor="middle" pointer-events="none" y="5" font-size="10px" fill="#FFFFFF" font-family="sans-serif"> Carrie-A…</text></g><g class="node" transform="translate(133.5726111535162,12.24153906648035)"><circle class="outline" cx="0" cy="0" r="25" fill="#57C7E3" stroke="#23b3d7" stroke-width="2px"/><text text-anchor="middle" pointer-events="none" font-family="sans-serif" dy="1.5625" font-size="25" fill="#FFFFFF"/><text text-anchor="middle" pointer-events="none" font-family="sans-serif" dy="1.5625" font-size="25" fill="#FFFFFF"/><text text-anchor="middle" pointer-events="none" y="0" font-size="10px" fill="#FFFFFF" font-family="sans-serif"> Keanu</text><text text-anchor="middle" pointer-events="none" y="10" font-size="10px" fill="#FFFFFF" font-family="sans-serif"> Reeves</text></g><g class="node" transform="translate(40.02356294141319,39.89253586386793)"><circle class="outline" cx="0" cy="0" r="25" fill="#F79767" stroke="#f36924" stroke-width="2px"/><text text-anchor="middle" pointer-events="none" font-family="sans-serif" dy="1.5625" font-size="25" fill="#FFFFFF"/><text text-anchor="middle" pointer-events="none" font-family="sans-serif" dy="1.5625" font-size="25" fill="#FFFFFF"/><text text-anchor="middle" pointer-events="none" font-family="sans-serif" dy="1.5625" font-size="25" fill="#FFFFFF"/><text text-anchor="middle" pointer-events="none" y="-5" font-size="10px" fill="#FFFFFF" font-family="sans-serif"> The</text><text text-anchor="middle" pointer-events="none" y="5" font-size="10px" fill="#FFFFFF" font-family="sans-serif"> Matrix</text><text text-anchor="middle" pointer-events="none" y="15" font-size="10px" fill="#FFFFFF" font-family="sans-serif"> Reloa…</text></g><g class="node" transform="translate(-19.079930451138846,32.19756557804625)"><circle class="outline" cx="0" cy="0" r="25" fill="#F79767" stroke="#f36924" stroke-width="2px"/><text text-anchor="middle" pointer-events="none" font-family="sans-serif" dy="1.5625" font-size="25" fill="#FFFFFF"/><text text-anchor="middle" pointer-events="none" font-family="sans-serif" dy="1.5625" font-size="25" fill="#FFFFFF"/><text text-anchor="middle" pointer-events="none" font-family="sans-serif" dy="1.5625" font-size="25" fill="#FFFFFF"/><text text-anchor="middle" pointer-events="none" y="-5" font-size="10px" fill="#FFFFFF" font-family="sans-serif"> The</text><text text-anchor="middle" pointer-events="none" y="5" font-size="10px" fill="#FFFFFF" font-family="sans-serif"> Matrix</text><text text-anchor="middle" pointer-events="none" y="15" font-size="10px" fill="#FFFFFF" font-family="sans-serif"> Revol…</text></g><g class="node" transform="translate(261.4806841025452,21.140538274825484)"><circle class="outline" cx="0" cy="0" r="25" fill="#F79767" stroke="#f36924" stroke-width="2px"/><text text-anchor="middle" pointer-events="none" font-family="sans-serif" dy="1.5625" font-size="25" fill="#FFFFFF"/><text text-anchor="middle" pointer-events="none" font-family="sans-serif" dy="1.5625" font-size="25" fill="#FFFFFF"/><text text-anchor="middle" pointer-events="none" font-family="sans-serif" dy="1.5625" font-size="25" fill="#FFFFFF"/><text text-anchor="middle" pointer-events="none" y="-5" font-size="10px" fill="#FFFFFF" font-family="sans-serif"> The</text><text text-anchor="middle" pointer-events="none" y="5" font-size="10px" fill="#FFFFFF" font-family="sans-serif"> Devil's</text><text text-anchor="middle" pointer-events="none" y="15" font-size="10px" fill="#FFFFFF" font-family="sans-serif"> Advoc…</text></g><g class="node" transform="translate(181.5296767383667,138.082720169043)"><circle class="outline" cx="0" cy="0" r="25" fill="#F79767" stroke="#f36924" stroke-width="2px"/><text text-anchor="middle" pointer-events="none" font-family="sans-serif" dy="1.5625" font-size="25" fill="#FFFFFF"/><text text-anchor="middle" pointer-events="none" font-family="sans-serif" dy="1.5625" font-size="25" fill="#FFFFFF"/><text text-anchor="middle" pointer-events="none" y="0" font-size="10px" fill="#FFFFFF" font-family="sans-serif"> The</text><text text-anchor="middle" pointer-events="none" y="10" font-size="10px" fill="#FFFFFF" font-family="sans-serif"> Replac…</text></g><g class="node" transform="translate(229.27326231407898,-63.79452740426708)"><circle class="outline" cx="0" cy="0" r="25" fill="#F79767" stroke="#f36924" stroke-width="2px"/><text text-anchor="middle" pointer-events="none" font-family="sans-serif" dy="1.5625" font-size="25" fill="#FFFFFF"/><text text-anchor="middle" pointer-events="none" font-family="sans-serif" dy="1.5625" font-size="25" fill="#FFFFFF"/><text text-anchor="middle" pointer-events="none" y="0" font-size="10px" fill="#FFFFFF" font-family="sans-serif"> Johnny</text><text text-anchor="middle" pointer-events="none" y="10" font-size="10px" fill="#FFFFFF" font-family="sans-serif"> Mnemo…</text></g><g class="node" transform="translate(-100.04249237229627,220.5880525847886)"><circle class="outline" cx="0" cy="0" r="25" fill="#F79767" stroke="#f36924" stroke-width="2px"/><text text-anchor="middle" pointer-events="none" font-family="sans-serif" dy="1.5625" font-size="25" fill="#FFFFFF"/><text text-anchor="middle" pointer-events="none" font-family="sans-serif" dy="1.5625" font-size="25" fill="#FFFFFF"/><text text-anchor="middle" pointer-events="none" y="0" font-size="10px" fill="#FFFFFF" font-family="sans-serif"> Cloud</text><text text-anchor="middle" pointer-events="none" y="10" font-size="10px" fill="#FFFFFF" font-family="sans-serif"> Atlas</text></g><g class="node" transform="translate(-0.15177576822903177,243.28660001012233)"><circle class="outline" cx="0" cy="0" r="25" fill="#F79767" stroke="#f36924" stroke-width="2px"/><text text-anchor="middle" pointer-events="none" font-family="sans-serif" dy="1.5625" font-size="25" fill="#FFFFFF"/><text text-anchor="middle" pointer-events="none" font-family="sans-serif" dy="1.5625" font-size="25" fill="#FFFFFF"/><text text-anchor="middle" pointer-events="none" y="0" font-size="10px" fill="#FFFFFF" font-family="sans-serif"> V for</text><text text-anchor="middle" pointer-events="none" y="10" font-size="10px" fill="#FFFFFF" font-family="sans-serif"> Vendetta</text></g><g class="node" transform="translate(237.64470430692626,92.64393992370387)"><circle class="outline" cx="0" cy="0" r="25" fill="#F79767" stroke="#f36924" stroke-width="2px"/><text text-anchor="middle" pointer-events="none" font-family="sans-serif" dy="1.5625" font-size="25" fill="#FFFFFF"/><text text-anchor="middle" pointer-events="none" y="5" font-size="10px" fill="#FFFFFF" font-family="sans-serif"> Somethi…</text></g></g></svg>