<svg xmlns="http://www.w3.org/2000/svg" width="258.8776550292969" height="291.878173828125" viewBox="-68.19774627685547 -54.60792541503906 258.8776550292969 291.878173828125"><title>Neo4j Graph Visualization</title><desc>Created using Neo4j (http://www.neo4j.com/)</desc><g class="layer relationships"><g class="relationship" transform="translate(-39.19774660517573 208.27022125973122) rotate(278.07591854282896)"><path class="outline" fill="#A5ABB6" stroke="none" d="M 24.018736134675446,6.953439040707552 L 24.277555179777966,5.987513214418485 A 127.84170863644567 127.84170863644567 0 0 0 32.319785692279154,7.866248031320637 L 32.12387436796885,8.8468696469334 A 128.84170863644567 128.84170863644567 0 0 1 24.018736134675446,6.953439040707552 Z M 78.93087013872187,9.525987224616543 L 78.76349075332242,8.540094663865986 A 127.84170863644567 127.84170863644567 0 0 0 86.85684131405256,6.895469226395736 L 86.16478038584839,3.9763851797034886 L 93.78338091103517,5.767174401701389 L 87.77958921832479,10.787581288652067 L 87.08752829012062,7.868497241959819 A 128.84170863644567 128.84170863644567 0 0 1 78.93087013872187,9.525987224616543"/><text text-anchor="middle" pointer-events="none" font-size="8px" fill="#000000" x="55.50352429428298" y="13.830107462287998" font-family="sans-serif">DIRECTED</text></g><g class="relationship" transform="translate(-39.19774660517573 208.27022125973122) rotate(278.07591854282896)"><path class="outline" fill="#A5ABB6" stroke="none" d="M 24.018736134675446,-6.953439040707552 L 24.277555179777966,-5.987513214418485 A 127.84170863644567 127.84170863644567 0 0 1 37.77121676939365,-8.833094920358732 L 37.61794748370485,-9.821279379892701 A 128.84170863644567 128.84170863644567 0 0 0 24.018736134675446,-6.953439040707552 Z M 73.41084037040895,-10.34059454454335 L 73.28630448519847,-9.348379440196098 A 127.84170863644567 127.84170863644567 0 0 1 86.85684131405256,-6.895469226395736 L 86.16478038584839,-3.9763851797034886 L 93.78338091103517,-5.767174401701389 L 87.77958921832479,-10.787581288652067 L 87.08752829012062,-7.868497241959819 A 128.84170863644567 128.84170863644567 0 0 0 73.41084037040895,-10.34059454454335"/><text text-anchor="middle" pointer-events="none" font-size="8px" fill="#000000" x="55.50352429428297" y="-7.830107462287998" font-family="sans-serif">WROTE</text></g><g class="relationship" transform="translate(-23.115454703929885 -25.607923010769255) rotate(449.7499883818712)"><path class="outline" fill="#A5ABB6" stroke="none" d="M 24.018736134675446,6.953439040707552 L 24.277555179777966,5.987513214418485 A 125.52093218519727 125.52093218519727 0 0 0 37.190995309474246,8.728973324702324 L 37.0350550424758,9.716739811848171 A 126.52093218519727 126.52093218519727 0 0 1 24.018736134675446,6.953439040707552 Z M 72.8261217805925,10.240929880090718 L 72.69917552344074,9.249020283506852 A 125.52093218519727 125.52093218519727 0 0 0 85.68736168802131,6.8869111256306725 L 84.99610012241203,3.967637680420136 L 92.61420998778078,5.7605130467440855 L 86.60904377550037,10.77927571924472 L 85.91778220989109,7.860002274034184 A 126.52093218519727 126.52093218519727 0 0 1 72.8261217805925,10.240929880090718"/><text text-anchor="middle" pointer-events="none" font-size="8px" fill="#000000" x="54.919279090642696" y="13.751021660088242" font-family="sans-serif">WROTE</text></g><g class="relationship" transform="translate(-23.115454703929885 -25.607923010769255) rotate(449.7499883818712)"><path class="outline" fill="#A5ABB6" stroke="none" d="M 24.018736134675446,-6.953439040707552 L 24.277555179777966,-5.987513214418485 A 125.52093218519727 125.52093218519727 0 0 1 31.74299815410358,-7.745292907614157 L 31.543654790422153,-8.725222610886888 A 126.52093218519727 126.52093218519727 0 0 0 24.018736134675446,-6.953439040707552 Z M 78.3442036885356,-9.410655741455315 L 78.17364344741583,-8.425308490914091 A 125.52093218519727 125.52093218519727 0 0 1 85.68736168802131,-6.8869111256306725 L 84.99610012241203,-3.967637680420136 L 92.61420998778078,-5.7605130467440855 L 86.60904377550037,-10.77927571924472 L 85.91778220989109,-7.860002274034184 A 126.52093218519727 126.52093218519727 0 0 0 78.3442036885356,-9.410655741455315"/><text text-anchor="middle" pointer-events="none" font-size="8px" fill="#000000" x="54.91927909064264" y="-7.751021660088242" font-family="sans-serif">DIRECTED</text></g><g class="relationship" transform="translate(161.67989643702805 27.552341814137773) rotate(521.6591307087804)"><path class="outline" fill="#A5ABB6" stroke="none" d="M 21.40063509461097,12.933012701892217 L 21.90063509461097,12.06698729810778 A 85.29651874673137 85.29651874673137 0 0 0 37.14395582960991,18.972198457832206 L 36.82266559360696,19.91917923073585 A 86.29651874673137 86.29651874673137 0 0 1 21.40063509461097,12.933012701892217 Z M 88.10234807847779,21.2180567148594 L 87.82941176595251,20.25602461076666 A 85.29651874673137 85.29651874673137 0 0 0 103.40276943519733,14.131377755951046 L 102.0362233367831,11.460693993146316 L 109.86212256481075,11.38788415345196 L 105.22483089974965,17.69228943969069 L 103.85828480133542,15.021605676885958 A 86.29651874673137 86.29651874673137 0 0 1 88.10234807847779,21.2180567148594"/><text text-anchor="middle" pointer-events="none" font-size="8px" fill="#000000" x="62.37642712693031" y="26.96704484955191" transform="rotate(180 62.37642712693031 23.96704484955191)" font-family="sans-serif">PRODUCED</text></g><g class="relationship" transform="translate(161.67989643702805 27.552341814137773) rotate(521.6591307087804)"><path class="outline" fill="#A5ABB6" stroke="none" d="M 25 0.5 L 39.113597794091774 0.5 L 39.113597794091774 -0.5 L 25 -0.5 Z M 86.00422279409177 0.5 L 100.11782058818355 0.5 L 100.11782058818355 3.5 L 107.11782058818355 0 L 100.11782058818355 -3.5 L 100.11782058818355 -0.5 L 86.00422279409177 -0.5 Z"/><text text-anchor="middle" pointer-events="none" font-size="8px" fill="#000000" x="62.558910294091774" y="3" transform="rotate(180 62.558910294091774 0)" font-family="sans-serif">DIRECTED</text></g><g class="relationship" transform="translate(161.67989643702805 27.552341814137773) rotate(521.6591307087804)"><path class="outline" fill="#A5ABB6" stroke="none" d="M 21.40063509461097,-12.933012701892217 L 21.90063509461097,-12.06698729810778 A 85.29651874673137 85.29651874673137 0 0 1 44.78756926462012,-21.173851785452598 L 44.55589128416193,-22.146644319023252 A 86.29651874673137 86.29651874673137 0 0 0 21.40063509461097,-12.933012701892217 Z M 80.26627104596572,-23.05116256044944 L 80.08413882549786,-22.067888512044092 A 85.29651874673137 85.29651874673137 0 0 1 103.40276943519733,-14.131377755951046 L 102.0362233367831,-11.460693993146316 L 109.86212256481075,-11.38788415345196 L 105.22483089974965,-17.69228943969069 L 103.85828480133542,-15.021605676885958 A 86.29651874673137 86.29651874673137 0 0 0 80.26627104596572,-23.05116256044944"/><text text-anchor="middle" pointer-events="none" font-size="8px" fill="#000000" x="62.37642712693029" y="-20.96704484955191" transform="rotate(180 62.37642712693029 -23.96704484955191)" font-family="sans-serif">WROTE</text></g><g class="relationship" transform="translate(146.7352192882935 183.71652880490822) rotate(207.42707697580454)"><path class="outline" fill="#A5ABB6" stroke="none" d="M 21.40063509461097,12.933012701892217 L 21.90063509461097,12.06698729810778 A 85.77159864725242 85.77159864725242 0 0 0 37.370763446654124,19.058666302911433 L 37.05112767672597,20.006206789952714 A 86.77159864725242 86.77159864725242 0 0 1 21.40063509461097,12.933012701892217 Z M 88.33788464084489,21.300911248857147 L 88.06646575966985,20.33844992966469 A 85.77159864725242 85.77159864725242 0 0 0 103.86966599050805,14.136247982054748 L 102.50266693060925,11.465796040859074 L 110.32855369661443,11.391658832490123 L 105.69233140370648,17.69685057031565 L 104.32533234380767,15.026398629119974 A 86.77159864725242 86.77159864725242 0 0 1 88.33788464084489,21.300911248857147"/><text text-anchor="middle" pointer-events="none" font-size="8px" fill="#000000" x="62.60925153264115" y="27.030726110362835" transform="rotate(180 62.60925153264115 24.030726110362835)" font-family="sans-serif">PRODUCED</text></g><g class="relationship" transform="translate(146.7352192882935 183.71652880490822) rotate(207.42707697580454)"><path class="outline" fill="#A5ABB6" stroke="none" d="M 25 0.5 L 39.34584743662252 0.5 L 39.34584743662252 -0.5 L 25 -0.5 Z M 86.23647243662252 0.5 L 100.58231987324504 0.5 L 100.58231987324504 3.5 L 107.58231987324504 0 L 100.58231987324504 -3.5 L 100.58231987324504 -0.5 L 86.23647243662252 -0.5 Z"/><text text-anchor="middle" pointer-events="none" font-size="8px" fill="#000000" x="62.79115993662252" y="3" transform="rotate(180 62.79115993662252 0)" font-family="sans-serif">DIRECTED</text></g><g class="relationship" transform="translate(146.7352192882935 183.71652880490822) rotate(207.42707697580454)"><path class="outline" fill="#A5ABB6" stroke="none" d="M 21.40063509461097,-12.933012701892217 L 21.90063509461097,-12.06698729810778 A 85.77159864725242 85.77159864725242 0 0 1 45.017925542808285,-21.249009802838174 L 44.78744704891045,-22.222087222086287 A 86.77159864725242 86.77159864725242 0 0 0 21.40063509461097,-12.933012701892217 Z M 80.49961342087457,-23.123620166960663 L 80.31852676063548,-22.140153023898193 A 85.77159864725242 85.77159864725242 0 0 1 103.86966599050805,-14.136247982054748 L 102.50266693060925,-11.465796040859074 L 110.32855369661443,-11.391658832490123 L 105.69233140370648,-17.69685057031565 L 104.32533234380767,-15.026398629119974 A 86.77159864725242 86.77159864725242 0 0 0 80.49961342087457,-23.123620166960663"/><text text-anchor="middle" pointer-events="none" font-size="8px" fill="#000000" x="62.60925153264115" y="-21.030726110362835" transform="rotate(180 62.60925153264115 -24.030726110362835)" font-family="sans-serif">WROTE</text></g></g><g class="layer nodes"><g class="node" transform="translate(-39.19774660517573,208.27022125973122)"><circle class="outline" cx="0" cy="0" r="25" fill="#57C7E3" stroke="#23b3d7" stroke-width="2px"/><text text-anchor="middle" pointer-events="none" font-family="sans-serif" dy="1.5625" font-size="25" fill="#FFFFFF"/><text text-anchor="middle" pointer-events="none" font-family="sans-serif" dy="1.5625" font-size="25" fill="#FFFFFF"/><text text-anchor="middle" pointer-events="none" y="0" font-size="10px" fill="#FFFFFF" font-family="sans-serif"> Andy</text><text text-anchor="middle" pointer-events="none" y="10" font-size="10px" fill="#FFFFFF" font-family="sans-serif"> Wacho…</text></g><g class="node" transform="translate(-22.60517910798447,91.33245238494217)"><circle class="outline" cx="0" cy="0" r="25" fill="#F79767" stroke="#f36924" stroke-width="2px"/><text text-anchor="middle" pointer-events="none" font-family="sans-serif" dy="1.5625" font-size="25" fill="#FFFFFF"/><text text-anchor="middle" pointer-events="none" font-family="sans-serif" dy="1.5625" font-size="25" fill="#FFFFFF"/><text text-anchor="middle" pointer-events="none" y="0" font-size="10px" fill="#FFFFFF" font-family="sans-serif"> Speed</text><text text-anchor="middle" pointer-events="none" y="10" font-size="10px" fill="#FFFFFF" font-family="sans-serif"> Racer</text></g><g class="node" transform="translate(-23.115454703929885,-25.607923010769255)"><circle class="outline" cx="0" cy="0" r="25" fill="#57C7E3" stroke="#23b3d7" stroke-width="2px"/><text text-anchor="middle" pointer-events="none" font-family="sans-serif" dy="1.5625" font-size="25" fill="#FFFFFF"/><text text-anchor="middle" pointer-events="none" font-family="sans-serif" dy="1.5625" font-size="25" fill="#FFFFFF"/><text text-anchor="middle" pointer-events="none" y="0" font-size="10px" fill="#FFFFFF" font-family="sans-serif"> Lana</text><text text-anchor="middle" pointer-events="none" y="10" font-size="10px" fill="#FFFFFF" font-family="sans-serif"> Wacho…</text></g><g class="node" transform="translate(161.67989643702805,27.552341814137773)"><circle class="outline" cx="0" cy="0" r="25" fill="#57C7E3" stroke="#23b3d7" stroke-width="2px"/><text text-anchor="middle" pointer-events="none" font-family="sans-serif" dy="1.5625" font-size="25" fill="#FFFFFF"/><text text-anchor="middle" pointer-events="none" font-family="sans-serif" dy="1.5625" font-size="25" fill="#FFFFFF"/><text text-anchor="middle" pointer-events="none" y="0" font-size="10px" fill="#FFFFFF" font-family="sans-serif"> Cameron</text><text text-anchor="middle" pointer-events="none" y="10" font-size="10px" fill="#FFFFFF" font-family="sans-serif"> Crowe</text></g><g class="node" transform="translate(36.27349411836738,69.12580419654797)"><circle class="outline" cx="0" cy="0" r="25" fill="#F79767" stroke="#f36924" stroke-width="2px"/><text text-anchor="middle" pointer-events="none" font-family="sans-serif" dy="1.5625" font-size="25" fill="#FFFFFF"/><text text-anchor="middle" pointer-events="none" font-family="sans-serif" dy="1.5625" font-size="25" fill="#FFFFFF"/><text text-anchor="middle" pointer-events="none" y="0" font-size="10px" fill="#FFFFFF" font-family="sans-serif"> Jerry</text><text text-anchor="middle" pointer-events="none" y="10" font-size="10px" fill="#FFFFFF" font-family="sans-serif"> Maguire</text></g><g class="node" transform="translate(146.7352192882935,183.71652880490822)"><circle class="outline" cx="0" cy="0" r="25" fill="#57C7E3" stroke="#23b3d7" stroke-width="2px"/><text text-anchor="middle" pointer-events="none" font-family="sans-serif" dy="1.5625" font-size="25" fill="#FFFFFF"/><text text-anchor="middle" pointer-events="none" font-family="sans-serif" dy="1.5625" font-size="25" fill="#FFFFFF"/><text text-anchor="middle" pointer-events="none" y="0" font-size="10px" fill="#FFFFFF" font-family="sans-serif"> Nancy</text><text text-anchor="middle" pointer-events="none" y="10" font-size="10px" fill="#FFFFFF" font-family="sans-serif"> Meyers</text></g><g class="node" transform="translate(29.055443359942046,122.64655352716264)"><circle class="outline" cx="0" cy="0" r="25" fill="#F79767" stroke="#f36924" stroke-width="2px"/><text text-anchor="middle" pointer-events="none" font-family="sans-serif" dy="1.5625" font-size="25" fill="#FFFFFF"/><text text-anchor="middle" pointer-events="none" y="5" font-size="10px" fill="#FFFFFF" font-family="sans-serif"> Somethi…</text></g></g></svg>